<?xml version="1.0" standalone="no"?>
<!DOCTYPE svg PUBLIC "-//W3C//DTD SVG 20010904//EN"
 "http://www.w3.org/TR/2001/REC-SVG-20010904/DTD/svg10.dtd">
<svg version="1.0" xmlns="http://www.w3.org/2000/svg"
 width="64.000000pt" height="64.000000pt" viewBox="0 0 64.000000 64.000000"
 preserveAspectRatio="xMidYMid meet">

<g transform="translate(0.000000,64.000000) scale(0.100000,-0.100000)"
fill="#000000" stroke="none">
<path d="M224 620 c-54 -17 -128 -73 -161 -123 -41 -61 -53 -104 -53 -187 0
-168 134 -300 306 -300 101 0 158 22 225 89 66 66 89 124 89 221 0 124 -54
216 -161 275 -45 24 -68 29 -134 32 -44 1 -94 -2 -111 -7z m261 -129 c-9 -15
-36 -321 -30 -331 3 -6 0 -7 -8 -4 -8 3 -40 -2 -71 -11 -52 -15 -60 -15 -112
0 -31 9 -63 14 -71 11 -8 -3 -11 -1 -8 4 6 9 -7 194 -20 292 l-5 38 162 3 c90
1 164 4 166 5 2 1 1 -2 -3 -7z"/>
<path d="M234 388 c3 -13 6 -37 6 -53 l0 -30 68 5 67 5 -3 -33 c-3 -24 -11
-36 -28 -42 -30 -12 -74 4 -74 25 0 8 -7 15 -15 15 -12 0 -14 -7 -9 -27 4 -16
9 -30 11 -33 7 -7 121 -5 129 2 4 4 9 30 12 57 l4 50 -68 3 c-63 3 -69 5 -72
26 -3 21 0 22 72 22 61 0 76 3 76 15 0 12 -17 15 -91 15 -90 0 -91 0 -85 -22z"/>
</g>
</svg>
